<svg width="28" height="28" viewBox="0 0 28 28" fill="none" xmlns="http://www.w3.org/2000/svg">
<path d="M14 21L14 14" stroke="#D6E5F4" stroke-width="2" stroke-linecap="round" stroke-linejoin="round"/>
<path d="M18 22H10" stroke="#D6E5F4" stroke-width="2" stroke-linecap="round" stroke-linejoin="round"/>
<mask id="path-3-inside-1_398_6149" fill="white">
<path d="M6.61536 3.01065C6.61536 1.9002 7.51556 1 8.62601 1H19.3739C20.4843 1 21.3845 1.9002 21.3845 3.01065V9.84425C21.3845 13.9226 18.0783 17.2288 13.9999 17.2288C9.92155 17.2288 6.61536 13.9226 6.61536 9.84425V3.01065Z"/>
</mask>
<path d="M6.61536 3.01065C6.61536 1.9002 7.51556 1 8.62601 1H19.3739C20.4843 1 21.3845 1.9002 21.3845 3.01065V9.84425C21.3845 13.9226 18.0783 17.2288 13.9999 17.2288C9.92155 17.2288 6.61536 13.9226 6.61536 9.84425V3.01065Z" fill="#D6E5F4"/>
<path d="M8.62601 3H19.3739V-1H8.62601V3ZM19.3845 3.01065V9.84425H23.3845V3.01065H19.3845ZM8.61536 9.84425V3.01065H4.61536V9.84425H8.61536ZM13.9999 15.2288C11.0261 15.2288 8.61536 12.8181 8.61536 9.84425H4.61536C4.61536 15.0272 8.81698 19.2288 13.9999 19.2288V15.2288ZM19.3845 9.84425C19.3845 12.8181 16.9738 15.2288 13.9999 15.2288V19.2288C19.1829 19.2288 23.3845 15.0272 23.3845 9.84425H19.3845ZM19.3739 3C19.3772 3 19.3784 3.00031 19.3781 3.00025C19.378 3.00021 19.3776 3.00011 19.3774 3.00002C19.3772 2.99994 19.379 3.0007 19.3814 3.00312C19.3838 3.00554 19.3846 3.00729 19.3845 3.00712C19.3844 3.00691 19.3843 3.00657 19.3843 3.00639C19.3842 3.00609 19.3845 3.00729 19.3845 3.01065H23.3845C23.3845 0.795629 21.5889 -1 19.3739 -1V3ZM8.62601 -1C6.41098 -1 4.61536 0.795634 4.61536 3.01065H8.61536C8.61536 3.00729 8.61566 3.00609 8.6156 3.00639C8.61557 3.00657 8.61546 3.00691 8.61537 3.00712C8.6153 3.00729 8.61606 3.00554 8.61848 3.00312C8.62089 3.0007 8.62265 2.99994 8.62248 3.00002C8.62226 3.00011 8.62193 3.00021 8.62174 3.00025C8.62144 3.00031 8.62265 3 8.62601 3V-1Z" fill="#D6E5F4" mask="url(#path-3-inside-1_398_6149)"/>
<mask id="path-5-inside-2_398_6149" fill="white">
<path d="M5.23067 7.80187C5.23067 8.26319 4.85026 8.6479 4.40525 8.52629C4.26562 8.48813 4.12832 8.44024 3.99431 8.38284C3.60234 8.21493 3.24619 7.96881 2.94618 7.65855C2.64618 7.34829 2.4082 6.97995 2.24584 6.57458C2.08348 6.1692 1.99992 5.73472 1.99992 5.29594C1.99992 4.85717 2.08348 4.42269 2.24584 4.01731C2.4082 3.61193 2.64618 3.2436 2.94618 2.93334C3.24619 2.62307 3.60234 2.37696 3.99432 2.20905C4.12832 2.15164 4.26562 2.10376 4.40525 2.0656C4.85026 1.94398 5.23067 2.32869 5.23067 2.79002L5.23067 2.98988C5.23067 3.34083 4.93509 3.6143 4.61249 3.7525C4.41651 3.83645 4.23843 3.95951 4.08843 4.11464C3.93843 4.26977 3.81944 4.45394 3.73826 4.65663C3.65708 4.85931 3.61529 5.07655 3.61529 5.29594C3.61529 5.51533 3.65708 5.73257 3.73826 5.93526C3.81944 6.13795 3.93843 6.32212 4.08843 6.47725C4.23843 6.63238 4.41651 6.75543 4.61249 6.83939C4.93509 6.97758 5.23067 7.25106 5.23067 7.60201L5.23067 7.80187Z"/>
</mask>
<path d="M5.23067 7.80187C5.23067 8.26319 4.85026 8.6479 4.40525 8.52629C4.26562 8.48813 4.12832 8.44024 3.99431 8.38284C3.60234 8.21493 3.24619 7.96881 2.94618 7.65855C2.64618 7.34829 2.4082 6.97995 2.24584 6.57458C2.08348 6.1692 1.99992 5.73472 1.99992 5.29594C1.99992 4.85717 2.08348 4.42269 2.24584 4.01731C2.4082 3.61193 2.64618 3.2436 2.94618 2.93334C3.24619 2.62307 3.60234 2.37696 3.99432 2.20905C4.12832 2.15164 4.26562 2.10376 4.40525 2.0656C4.85026 1.94398 5.23067 2.32869 5.23067 2.79002L5.23067 2.98988C5.23067 3.34083 4.93509 3.6143 4.61249 3.7525C4.41651 3.83645 4.23843 3.95951 4.08843 4.11464C3.93843 4.26977 3.81944 4.45394 3.73826 4.65663C3.65708 4.85931 3.61529 5.07655 3.61529 5.29594C3.61529 5.51533 3.65708 5.73257 3.73826 5.93526C3.81944 6.13795 3.93843 6.32212 4.08843 6.47725C4.23843 6.63238 4.41651 6.75543 4.61249 6.83939C4.93509 6.97758 5.23067 7.25106 5.23067 7.60201L5.23067 7.80187Z" fill="#D6E5F4" stroke="#D6E5F4" stroke-width="2" mask="url(#path-5-inside-2_398_6149)"/>
<mask id="path-6-inside-3_398_6149" fill="white">
<path d="M22.7692 2.79005C22.7692 2.32872 23.1496 1.94402 23.5946 2.06563C23.7343 2.10379 23.8716 2.15168 24.0056 2.20908C24.3975 2.37699 24.7537 2.62311 25.0537 2.93337C25.3537 3.24363 25.5917 3.61197 25.754 4.01734C25.9164 4.42272 26 4.8572 26 5.29598C26 5.73475 25.9164 6.16923 25.754 6.57461C25.5917 6.97999 25.3537 7.34832 25.0537 7.65858C24.7537 7.96885 24.3975 8.21496 24.0056 8.38287C23.8716 8.44028 23.7343 8.48816 23.5946 8.52632C23.1496 8.64794 22.7692 8.26323 22.7692 7.8019L22.7692 7.60204C22.7692 7.25109 23.0648 6.97762 23.3874 6.83942C23.5834 6.75547 23.7614 6.63241 23.9115 6.47728C24.0615 6.32215 24.1804 6.13798 24.2616 5.93529C24.3428 5.7326 24.3846 5.51536 24.3846 5.29598C24.3846 5.07659 24.3428 4.85935 24.2616 4.65666C24.1804 4.45397 24.0615 4.2698 23.9115 4.11467C23.7614 3.95954 23.5834 3.83648 23.3874 3.75253C23.0648 3.61434 22.7692 3.34086 22.7692 2.98991L22.7692 2.79005Z"/>
</mask>
<path d="M22.7692 2.79005C22.7692 2.32872 23.1496 1.94402 23.5946 2.06563C23.7343 2.10379 23.8716 2.15168 24.0056 2.20908C24.3975 2.37699 24.7537 2.62311 25.0537 2.93337C25.3537 3.24363 25.5917 3.61197 25.754 4.01734C25.9164 4.42272 26 4.8572 26 5.29598C26 5.73475 25.9164 6.16923 25.754 6.57461C25.5917 6.97999 25.3537 7.34832 25.0537 7.65858C24.7537 7.96885 24.3975 8.21496 24.0056 8.38287C23.8716 8.44028 23.7343 8.48816 23.5946 8.52632C23.1496 8.64794 22.7692 8.26323 22.7692 7.8019L22.7692 7.60204C22.7692 7.25109 23.0648 6.97762 23.3874 6.83942C23.5834 6.75547 23.7614 6.63241 23.9115 6.47728C24.0615 6.32215 24.1804 6.13798 24.2616 5.93529C24.3428 5.7326 24.3846 5.51536 24.3846 5.29598C24.3846 5.07659 24.3428 4.85935 24.2616 4.65666C24.1804 4.45397 24.0615 4.2698 23.9115 4.11467C23.7614 3.95954 23.5834 3.83648 23.3874 3.75253C23.0648 3.61434 22.7692 3.34086 22.7692 2.98991L22.7692 2.79005Z" fill="#D6E5F4" stroke="#D6E5F4" stroke-width="2" mask="url(#path-6-inside-3_398_6149)"/>
</svg>
