<svg width="24" height="24" viewBox="0 0 24 24" fill="none" xmlns="http://www.w3.org/2000/svg">
<path fill-rule="evenodd" clip-rule="evenodd" d="M12.9092 20.182H11.091C10.3043 20.182 9.54093 20.0821 8.81292 19.8942L6 22.0001C6.11513 20.5752 6.21333 19.6477 6.30801 18.8235C3.72221 17.2207 2 14.3569 2 11.091C2 6.07018 6.07018 2 11.091 2H12.9092C17.93 2 22.0002 6.07018 22.0002 11.091C22.0002 16.1118 17.93 20.182 12.9092 20.182Z" fill="#D6E5F4"/>
<path d="M8.81292 19.8942L8.93784 19.4101C8.79092 19.3722 8.63473 19.403 8.51326 19.4939L8.81292 19.8942ZM6 22.0001L5.50162 21.9599C5.48579 22.1558 5.58625 22.3428 5.75836 22.4379C5.93047 22.5329 6.14228 22.5182 6.29966 22.4004L6 22.0001ZM6.30801 18.8235L6.80474 18.8806C6.82683 18.6883 6.73595 18.5005 6.57144 18.3985L6.30801 18.8235ZM11.091 20.682H12.9092V19.682H11.091V20.682ZM8.68799 20.3783C9.45647 20.5766 10.2618 20.682 11.091 20.682V19.682C10.3468 19.682 9.6254 19.5875 8.93784 19.4101L8.68799 20.3783ZM6.29966 22.4004L9.11257 20.2945L8.51326 19.4939L5.70034 21.5999L6.29966 22.4004ZM5.81127 18.7665C5.71604 19.5955 5.61727 20.5286 5.50162 21.9599L6.49838 22.0404C6.613 20.6218 6.71061 19.7 6.80474 18.8806L5.81127 18.7665ZM1.5 11.091C1.5 14.5371 3.31786 17.5583 6.04458 19.2485L6.57144 18.3985C4.12655 16.883 2.5 14.1768 2.5 11.091H1.5ZM11.091 1.5C5.79403 1.5 1.5 5.79403 1.5 11.091H2.5C2.5 6.34632 6.34632 2.5 11.091 2.5V1.5ZM12.9092 1.5H11.091V2.5H12.9092V1.5ZM22.5002 11.091C22.5002 5.79403 18.2061 1.5 12.9092 1.5V2.5C17.6539 2.5 21.5002 6.34632 21.5002 11.091H22.5002ZM12.9092 20.682C18.2061 20.682 22.5002 16.3879 22.5002 11.091H21.5002C21.5002 15.8357 17.6539 19.682 12.9092 19.682V20.682Z" fill="#D6E5F4"/>
<rect x="6" y="8" width="10" height="2" rx="1" fill="#143350"/>
<rect x="6" y="12" width="6" height="2" rx="1" fill="#143350"/>
</svg>
