<svg width="100" height="100" viewBox="0 0 100 100" fill="none" xmlns="http://www.w3.org/2000/svg">
<g clip-path="url(#clip0_572_71697)">
<path d="M18.6314 44.2751C18.8662 39.6387 22.6938 36 27.3361 36H28.7173C33.7754 36 37.7713 40.2915 37.4109 45.3368L37.364 45.9935C37.0659 50.1669 33.8442 53.5397 29.6887 54.0286L28.313 54.1904C22.9551 54.8208 18.3172 50.4815 18.59 45.0936L18.6314 44.2751Z" fill="white"/>
<path d="M24.9036 48.2901C23.4656 46.4308 23.7817 43.7579 25.6067 42.2766C27.4147 40.8092 30.0665 41.0299 31.5989 42.7831C33.1665 44.5766 32.9834 47.3055 31.1973 48.8815C29.3226 50.5357 26.4332 50.2679 24.9036 48.2901Z" fill="#33A7C1"/>
<path d="M81.4622 45.0116C81.2274 40.3753 77.3999 36.7366 72.7576 36.7366H71.3763C66.3182 36.7366 62.3223 41.028 62.6827 46.0733L62.7296 46.7301C63.0277 50.9035 66.2494 54.2763 70.4049 54.7652L71.7806 54.927C77.1385 55.5574 81.7765 51.2181 81.5036 45.8302L81.4622 45.0116Z" fill="white"/>
<path d="M75.5776 48.2902C77.0156 46.4308 76.6995 43.7579 74.8745 42.2766C73.0665 40.8093 70.4147 41.0299 68.8823 42.7831C67.3147 44.5765 67.4978 47.3055 69.2839 48.8815C71.1587 50.5357 74.0481 50.2679 75.5776 48.2902Z" fill="#33A7C1"/>
<path d="M23.3726 52.6235C39.4538 30.8954 69.5294 39.9609 76.4039 51.7641C82.91 62.935 83.9256 66.6177 85.979 91.4148C87.6946 112.134 84.0402 129.478 78.859 134.503C64.1026 148.814 37.4702 144.437 25.5822 137.694C17.7003 133.224 11.5299 119.728 13.5855 92.6424C15.6724 65.1447 16.2199 62.2878 23.3726 52.6235Z" fill="white"/>
<path d="M58.333 67.6715H58.5113C59.824 67.6715 60.8155 66.4817 60.5788 65.1905L60.2456 63.373C60.0763 62.4497 59.2717 61.7792 58.333 61.7792C57.3943 61.7792 56.5897 62.4497 56.4204 63.373L56.1725 64.7254L56.1193 65.0151C55.8659 66.3976 56.9275 67.6715 58.333 67.6715Z" fill="#1A1A1A"/>
<path d="M40.1649 67.6715H40.3432C41.6559 67.6715 42.6474 66.4817 42.4107 65.1905L42.0775 63.373C41.9082 62.4497 41.1036 61.7792 40.1649 61.7792C39.2262 61.7792 38.4216 62.4497 38.2523 63.373L38.0044 64.7254L37.9512 65.0151C37.6978 66.3976 38.7594 67.6715 40.1649 67.6715Z" fill="#1A1A1A"/>
<rect x="39.1826" y="70.8628" width="20.6233" height="13.5033" rx="6.75167" stroke="#CCCCCC" stroke-width="0.49103"/>
<rect x="46.2137" y="80.2137" width="6.41068" height="4.0601" rx="2.03005" fill="#FF9E9E" stroke="#CCCCCC" stroke-width="0.427379"/>
<rect x="49.2487" y="75.7736" width="0.49103" height="3.68273" fill="#CCCCCC"/>
<path d="M49.4944 71.6523L47.5567 71.7436C46.1731 71.8089 45.4311 73.4003 46.2707 74.502L46.5182 74.8269C46.6022 74.937 46.7012 75.0348 46.8125 75.1173L47.7395 75.8047C48.7818 76.5776 50.207 76.5776 51.2492 75.8047L52.1763 75.1173C52.2875 75.0348 52.3866 74.937 52.4705 74.8269L52.7181 74.502C53.5576 73.4003 52.8157 71.8089 51.4321 71.7436L49.4944 71.6523Z" fill="#2E3192"/>
<path d="M22 97.8203C24.4552 97.5748 29.9792 96.0526 32.4344 91.9279C34.6849 89.2273 40.5609 85.2254 46.0605 90.8231C47.6563 92.8691 49.5714 97.9921 44.4646 102.117C42.6233 103.467 37.4675 106.487 31.5751 107.764" stroke="#D9D9D9"/>
<path d="M42.1044 21.0758C41.9093 17.3454 42.8934 16.1415 44.668 14.9048C45.8625 14.0258 46.7686 12.988 46.666 11.5267C46.5821 9.88817 45.232 8.91282 43.6382 9.00872C42.1906 9.09583 40.8432 10.1161 40.8588 12.0816L37.2033 12.3016C37.0689 8.36211 39.8728 6.18292 43.4844 5.96559C47.4324 5.72803 50.2694 7.75855 50.4934 11.2377C50.6222 13.622 49.5311 15.2432 47.698 16.4834C46.0643 17.6237 45.4232 18.6748 45.5259 20.8699L45.5418 21.1331L42.1202 21.339L42.1044 21.0758ZM41.904 25.549C41.8154 24.3216 42.7929 23.2503 44.0495 23.16C45.264 23.1016 46.3629 24.048 46.4368 25.2762C46.5124 26.5337 45.5359 27.6197 44.3222 27.6928C43.0648 27.7684 41.965 26.8074 41.904 25.549Z" fill="white"/>
<path d="M55.3238 28.6273C55.787 24.9207 56.9673 23.9084 58.9316 23.0027C60.2619 22.3472 61.3363 21.4847 61.4919 20.0281C61.6972 18.4003 60.5394 17.203 58.9536 17.0174C57.5132 16.8488 56.0075 17.6166 55.6775 19.5542L52.0403 19.1286C52.6001 15.2268 55.7431 13.5741 59.3368 13.9946C63.2651 14.4542 65.7013 16.9516 65.3106 20.416C65.0186 22.7858 63.6596 24.1901 61.6372 25.0891C59.8286 25.9246 59.0127 26.8467 58.7283 29.0257L58.6976 29.2876L55.2931 28.8892L55.3238 28.6273ZM54.3406 32.9958C54.4691 31.772 55.6196 30.889 56.8725 31.0208C58.0784 31.1767 58.9939 32.3014 58.8509 33.5236C58.7045 34.7748 57.5523 35.6724 56.3447 35.5311C55.0935 35.3846 54.1797 34.2453 54.3406 32.9958Z" fill="white"/>
</g>
<defs>
<clipPath id="clip0_572_71697">
<rect width="100" height="100" fill="white"/>
</clipPath>
</defs>
</svg>
