<svg width="100" height="100" viewBox="0 0 100 100" fill="none" xmlns="http://www.w3.org/2000/svg">
<g clip-path="url(#clip0_572_71585)">
<path d="M18.6314 44.2751C18.8662 39.6387 22.6938 36 27.3361 36H28.7173C33.7754 36 37.7713 40.2915 37.4109 45.3368L37.364 45.9935C37.0659 50.1669 33.8442 53.5397 29.6887 54.0286L28.313 54.1904C22.9551 54.8208 18.3172 50.4815 18.59 45.0936L18.6314 44.2751Z" fill="white"/>
<path d="M24.9036 48.2901C23.4656 46.4308 23.7817 43.7579 25.6067 42.2766C27.4147 40.8092 30.0665 41.0299 31.5989 42.7831C33.1665 44.5766 32.9834 47.3055 31.1973 48.8815C29.3226 50.5357 26.4332 50.2679 24.9036 48.2901Z" fill="#33A7C1"/>
<path d="M81.4622 45.0116C81.2274 40.3753 77.3999 36.7366 72.7576 36.7366H71.3763C66.3182 36.7366 62.3223 41.028 62.6827 46.0733L62.7296 46.7301C63.0277 50.9035 66.2494 54.2763 70.4049 54.7652L71.7806 54.927C77.1385 55.5574 81.7765 51.2181 81.5036 45.8302L81.4622 45.0116Z" fill="white"/>
<path d="M75.5776 48.2902C77.0156 46.4308 76.6995 43.7579 74.8745 42.2766C73.0665 40.8093 70.4147 41.0299 68.8823 42.7831C67.3147 44.5765 67.4978 47.3055 69.2839 48.8815C71.1587 50.5357 74.0481 50.2679 75.5776 48.2902Z" fill="#33A7C1"/>
<path d="M23.3725 52.6235C39.4538 30.8954 69.5294 39.9609 76.4038 51.7641C82.91 62.935 83.9256 66.6177 85.9789 91.4148C87.6945 112.134 84.0401 129.478 78.8589 134.503C64.1026 148.814 37.4701 144.437 25.5822 137.694C17.7002 133.224 11.5299 119.728 13.5855 92.6424C15.6723 65.1447 16.2198 62.2878 23.3725 52.6235Z" fill="white"/>
<path d="M58.333 67.6715H58.5113C59.824 67.6715 60.8155 66.4817 60.5788 65.1905L60.2456 63.373C60.0763 62.4497 59.2717 61.7792 58.333 61.7792C57.3943 61.7792 56.5897 62.4497 56.4204 63.373L56.1725 64.7254L56.1193 65.0151C55.8659 66.3976 56.9275 67.6715 58.333 67.6715Z" fill="#1A1A1A"/>
<path d="M40.1649 67.6715H40.3432C41.6559 67.6715 42.6474 66.4817 42.4107 65.1905L42.0775 63.373C41.9082 62.4497 41.1036 61.7792 40.1649 61.7792C39.2262 61.7792 38.4216 62.4497 38.2523 63.373L38.0044 64.7254L37.9512 65.0151C37.6978 66.3976 38.7594 67.6715 40.1649 67.6715Z" fill="#1A1A1A"/>
<rect x="39.1826" y="70.8628" width="20.6233" height="13.5033" rx="6.75167" stroke="#CCCCCC" stroke-width="0.49103"/>
<rect x="49.2487" y="75.7736" width="0.49103" height="3.68273" fill="#CCCCCC"/>
<path d="M49.4943 71.6523L47.5567 71.7436C46.173 71.8089 45.4311 73.4003 46.2706 74.502L46.5182 74.8269C46.6021 74.937 46.7012 75.0348 46.8124 75.1173L47.7395 75.8047C48.7817 76.5776 50.2069 76.5776 51.2492 75.8047L52.1762 75.1173C52.2875 75.0348 52.3865 74.937 52.4705 74.8269L52.718 74.502C53.5576 73.4003 52.8156 71.8089 51.432 71.7436L49.4943 71.6523Z" fill="#2E3192"/>
<path d="M19.8582 100.969C22.3134 100.724 27.8375 99.2015 30.2926 95.0769C32.5432 92.3762 38.4192 88.3743 43.9187 93.972C45.5145 96.018 47.4296 101.141 42.3229 105.266C40.4815 106.616 35.3257 109.636 29.4333 110.913" stroke="#D9D9D9"/>
<path d="M78.9548 100.969C76.4996 100.724 70.9755 99.2015 68.5204 95.0769C66.2698 92.3762 60.3938 88.3743 54.8943 93.972C53.2984 96.018 51.3834 101.141 56.4901 105.266C58.3315 106.616 63.4873 109.636 69.3797 110.913" stroke="#D9D9D9"/>
</g>
<defs>
<clipPath id="clip0_572_71585">
<rect width="100" height="100" fill="white"/>
</clipPath>
</defs>
</svg>
