<svg width="328" height="280" viewBox="0 0 328 280" fill="none" xmlns="http://www.w3.org/2000/svg">
<circle cx="164" cy="140" r="140" fill="#1F4C77"/>
<path d="M152.476 44.5659C152.868 43.7882 152.174 42.8536 151.321 43.037L38.0741 67.4088C37.9033 67.4456 37.7481 67.5236 37.6242 67.6465C36.5488 68.713 31.3159 74.3919 32.988 82.3965C35.0208 92.1282 45.2395 93.3757 46.5249 93.4946C46.6135 93.5028 46.7019 93.4964 46.7891 93.4784L162.707 69.5208C162.707 69.5208 151.362 69.5431 149.037 58.4118C148.128 54.0631 150.87 47.7561 152.476 44.5659Z" fill="#337FC7"/>
<path d="M42.3142 76.0606L147.947 52.2175C147.947 52.2175 155.405 53.3284 156.716 58.7854C158.245 65.1519 149.248 71.3095 149.248 71.3095L46.4011 93.468C46.4011 93.468 52.259 91.4716 50.9409 82.4714C49.9405 75.6406 42.3142 76.0606 42.3142 76.0606Z" fill="#85B2DD"/>
<path d="M37.9848 67.4956L153.727 41.5564C153.727 41.5564 163.288 43.6123 170.557 52.4968C190.379 76.7238 195.007 102.462 192.878 129.522C190.644 157.925 186.689 178.7 203.456 201.749C208.495 208.677 218.708 217.504 218.708 217.504L99.4071 234.768C99.4071 234.768 89.195 225.94 84.1556 219.013C67.3888 195.963 68.9681 174.07 73.578 146.785C78.0162 120.516 80.0043 100.339 60.1823 76.1118C51.7948 65.8604 37.9848 67.4956 37.9848 67.4956Z" fill="#D6E5F4"/>
<path d="M99.6906 208.99C98.9907 208.412 99.2962 207.211 100.194 207.081L217.879 190.052C218.051 190.027 218.223 190.046 218.381 190.117C219.779 190.74 226.836 194.269 228.023 202.37C229.466 212.223 219.999 216.911 218.826 217.452C218.747 217.488 218.664 217.511 218.578 217.524L98.2545 234.935C98.2545 234.935 109.217 231.051 107.57 219.8C106.947 215.547 102.394 211.222 99.6906 208.99Z" fill="#85B2DD"/>
<path d="M114.112 139.262C116.955 135.909 123.962 128.863 129.251 127.509C135.862 125.817 132.926 129.184 134.467 131.903C136.008 134.623 140.745 129.891 144.051 129.045C147.356 128.199 144.779 132.066 148.443 131.72C152.108 131.374 157.763 127.061 160.561 126.656C163.36 126.251 160.391 133.301 166.374 133.171C172.356 133.041 170.948 121.475 175.705 120.787C179.511 120.236 181.747 122.365 182.389 123.498" stroke="#85B2DD" stroke-width="2" stroke-linecap="round"/>
<path d="M113.357 114.234C115.842 113.875 118.22 108.935 122.403 108.617C126.585 108.299 126.334 112.356 129.647 111.877C132.96 111.398 137.443 115.057 147.592 109.28C157.742 103.503 152.167 102.012 156.584 101.373C161.002 100.734 163.54 102.664 169.338 101.825C173.976 101.154 174.927 96.9955 174.823 95.0001" stroke="#85B2DD" stroke-width="2" stroke-linecap="round"/>
<path d="M116.044 185.257C118.783 184.86 121.472 179.876 126.078 179.496C130.685 179.117 130.348 183.187 134.001 182.658C137.653 182.13 142.532 185.732 153.784 179.796C165.035 173.859 158.923 172.446 163.793 171.741C168.662 171.037 171.427 172.934 177.818 172.009C182.931 171.27 184.039 167.088 183.953 165.09" stroke="#85B2DD" stroke-width="2" stroke-linecap="round"/>
<path d="M84 101L81 88.5L95 85L98 97.5L84 101Z" stroke="#85B2DD" stroke-width="2" stroke-linecap="round" stroke-linejoin="round"/>
<path d="M89 124.5L86.5 111.5L100 108.5L102.5 121.5L89 124.5Z" stroke="#85B2DD" stroke-width="2" stroke-linecap="round" stroke-linejoin="round"/>
<path d="M89 147.793V135.127C89 134.632 89.3616 134.212 89.8506 134.138L102.851 132.174C103.456 132.082 104 132.551 104 133.162V145.338C104 145.819 103.658 146.231 103.186 146.32L90.1856 148.776C89.5698 148.892 89 148.42 89 147.793Z" fill="#337FC7"/>
<path d="M89.9655 173L89 159.935L102.034 158L103 170.097L89.9655 173Z" stroke="#85B2DD" stroke-width="2" stroke-linecap="round" stroke-linejoin="round"/>
<path d="M94 195.5L92 183L105 180L107.5 192L94 195.5Z" stroke="#85B2DD" stroke-width="2" stroke-linecap="round" stroke-linejoin="round"/>
<path d="M115.387 158.877C122.957 166.289 121.254 157.267 127.121 155.658C132.987 154.048 132.749 146.522 140.321 152.036C147.892 157.55 151.43 161.738 155.215 154.173C157.963 148.683 160.529 152.715 168.596 150.502C175.049 148.731 178.601 144.277 180.065 147.355" stroke="#85B2DD" stroke-width="2" stroke-linecap="round"/>
<path d="M107.655 87.7787C115.308 95.0412 113.388 86.0642 119.121 84.3497C124.854 82.6352 124.417 75.1251 132.021 80.4921C139.625 85.8592 143.221 89.9767 146.745 82.3537C149.302 76.822 151.938 80.8008 159.821 78.4434C166.128 76.5574 169.505 72.0453 171.03 75.0916" stroke="#85B2DD" stroke-width="2" stroke-linecap="round"/>
<path d="M92 140.444L95.3158 144L101 136" stroke="#D6E5F4" stroke-width="2" stroke-linecap="round" stroke-linejoin="round"/>
<path d="M200.754 111.919C201.133 111.664 201.632 111.711 201.966 112.022L207.293 116.989C207.627 117.3 207.709 117.796 207.482 118.192C206.575 119.772 204.19 123.756 201.94 126.028C199.834 128.153 193.845 130.546 190.887 131.945C186.887 133.837 186.099 134.381 186.099 134.381C186.099 134.381 186.856 133.808 188.463 129.686C189.653 126.637 191.351 120.244 193.324 117.995C195.433 115.591 199.24 112.934 200.754 111.919Z" fill="#337FC7"/>
<rect x="205.186" y="108.144" width="7.8619" height="7.04516" rx="2" transform="rotate(42.9947 205.186 108.144)" fill="#337FC7"/>
<rect x="218.848" y="90.6091" width="11.7928" height="24.1548" rx="2" transform="rotate(42.9947 218.848 90.6091)" fill="#80D0EF"/>
<path d="M279.596 20.774C285.115 20.2534 289.278 17.2952 292.48 20.2804C295.682 23.2656 293.471 28.5699 292.797 33.0819C290.646 47.467 282.529 53.8828 271.945 63.8049C262.488 72.6708 244.591 80.5283 239.878 82.5093C239.164 82.8096 238.355 82.6517 237.788 82.1233L234.607 79.1576C234.064 78.6508 233.844 77.8943 234.053 77.1811C235.478 72.3209 241.413 53.276 249.712 43.0758C258.908 31.7725 265.525 22.1011 279.596 20.774Z" fill="#00B5AE"/>
<path d="M234.723 76.7388C235.073 76.2264 235.8 76.1417 236.254 76.565L240.266 80.3051C240.72 80.7283 240.686 81.4594 240.199 81.8447C237.702 83.8222 230.835 89.4722 227.376 94.4321C226.694 95.41 225.863 96.765 225.302 97.7019C224.971 98.2532 224.215 98.3648 223.745 97.9266L219.831 94.278C219.361 93.8397 219.42 93.077 219.947 92.709C220.842 92.0837 222.135 91.1598 223.063 90.4111C227.769 86.6139 232.925 79.3682 234.723 76.7388Z" fill="#DFF3FB"/>
<path d="M282.512 30.2511C280.008 32.3931 273.153 38.9843 265.766 48.2128C258.378 57.4413 245.941 70.0197 240.646 75.1553" stroke="#00918B" stroke-linecap="round"/>
</svg>
