<svg width="24" height="24" viewBox="0 0 24 24" fill="none" xmlns="http://www.w3.org/2000/svg">
<path d="M4 8.94737L7.59252 10.7673C8.03534 10.9916 8.57569 10.8571 8.86172 10.4514L12 6L15.1383 10.4514C15.4243 10.8571 15.9647 10.9916 16.4075 10.7673L20 8.94737L17.9653 18.5674C17.8772 18.9839 17.535 19.299 17.1126 19.3525L13.2564 19.8409C12.4221 19.9465 11.5779 19.9465 10.7436 19.8409L6.88737 19.3525C6.46497 19.299 6.12276 18.9839 6.03466 18.5674L4 8.94737Z" fill="#337FC7"/>
<rect x="3" y="7" width="3" height="3" rx="1.5" fill="#337FC7"/>
<rect x="10.5" y="4" width="3" height="3" rx="1.5" fill="#337FC7"/>
<rect x="18" y="7" width="3" height="3" rx="1.5" fill="#337FC7"/>
<path d="M9.49512 16.9355L12.0342 14.6016C12.2848 14.3607 12.4785 14.1621 12.6152 14.0059C12.7552 13.8464 12.8626 13.6885 12.9375 13.5322C13.0124 13.3727 13.0498 13.2018 13.0498 13.0195C13.0498 12.8145 13.001 12.6354 12.9033 12.4824C12.8089 12.3262 12.6755 12.2074 12.5029 12.126C12.3337 12.0446 12.1416 12.0039 11.9268 12.0039C11.5915 12.0007 11.3245 12.0983 11.126 12.2969C10.9274 12.4922 10.8298 12.7591 10.833 13.0977H9.43652C9.43652 12.6452 9.54069 12.248 9.74902 11.9062C9.96061 11.5612 10.2552 11.2959 10.6328 11.1104C11.0137 10.9248 11.4515 10.832 11.9463 10.832C12.4443 10.832 12.8838 10.9215 13.2646 11.1006C13.6455 11.2764 13.9401 11.5221 14.1484 11.8379C14.36 12.1536 14.4658 12.515 14.4658 12.9219C14.4658 13.2018 14.4121 13.4704 14.3047 13.7275C14.1973 13.9814 14.0101 14.2646 13.7432 14.5771C13.4795 14.8896 13.1051 15.2656 12.6201 15.7051L11.5459 16.75V16.7891H14.5635V18H9.50488L9.49512 16.9355Z" fill="#143350"/>
</svg>
