<svg width="24" height="24" viewBox="0 0 24 24" fill="none" xmlns="http://www.w3.org/2000/svg">
<path d="M4 8.94737L7.59252 10.7673C8.03534 10.9916 8.57569 10.8571 8.86172 10.4514L12 6L15.1383 10.4514C15.4243 10.8571 15.9647 10.9916 16.4075 10.7673L20 8.94737L17.9653 18.5674C17.8772 18.9839 17.535 19.299 17.1126 19.3525L13.2564 19.8409C12.4221 19.9465 11.5779 19.9465 10.7436 19.8409L6.88737 19.3525C6.46497 19.299 6.12276 18.9839 6.03466 18.5674L4 8.94737Z" fill="#FFD602"/>
<rect x="3" y="7" width="3" height="3" rx="1.5" fill="#FFD602"/>
<rect x="10.5" y="4" width="3" height="3" rx="1.5" fill="#FFD602"/>
<rect x="18" y="7" width="3" height="3" rx="1.5" fill="#FFD602"/>
<path d="M13.2598 18H11.7852V12.3262H11.7461L10.125 13.3418V12.043L11.873 10.9297H13.2598V18Z" fill="#143350"/>
</svg>
