<svg width="24" height="24" viewBox="0 0 24 24" fill="none" xmlns="http://www.w3.org/2000/svg">
<path d="M4 8.94737L7.59252 10.7673C8.03534 10.9916 8.57569 10.8571 8.86172 10.4514L12 6L15.1383 10.4514C15.4243 10.8571 15.9647 10.9916 16.4075 10.7673L20 8.94737L17.9653 18.5674C17.8772 18.9839 17.535 19.299 17.1126 19.3525L13.2564 19.8409C12.4221 19.9465 11.5779 19.9465 10.7436 19.8409L6.88737 19.3525C6.46497 19.299 6.12276 18.9839 6.03466 18.5674L4 8.94737Z" fill="#33C4BE"/>
<rect x="3" y="7" width="3" height="3" rx="1.5" fill="#33C4BE"/>
<rect x="10.5" y="4" width="3" height="3" rx="1.5" fill="#33C4BE"/>
<rect x="18" y="7" width="3" height="3" rx="1.5" fill="#33C4BE"/>
<path d="M11.9805 18.0977C11.4694 18.0977 11.0104 18.0098 10.6035 17.834C10.1999 17.6582 9.88086 17.4124 9.64648 17.0967C9.41536 16.7777 9.29492 16.4147 9.28516 16.0078H10.7695C10.776 16.1803 10.833 16.3333 10.9404 16.4668C11.0479 16.597 11.1927 16.6995 11.375 16.7744C11.5573 16.8493 11.7624 16.8867 11.9902 16.8867C12.2214 16.8867 12.4281 16.846 12.6104 16.7646C12.7959 16.68 12.9391 16.5661 13.04 16.4229C13.141 16.2764 13.1914 16.1087 13.1914 15.9199C13.1914 15.7279 13.1377 15.5586 13.0303 15.4121C12.9229 15.2624 12.7682 15.1452 12.5664 15.0605C12.3646 14.9759 12.127 14.9336 11.8535 14.9336H11.1992V13.8496H11.8535C12.0846 13.8496 12.2897 13.8105 12.4688 13.7324C12.6478 13.6543 12.7861 13.5436 12.8838 13.4004C12.9847 13.2572 13.0352 13.0944 13.0352 12.9121C13.0352 12.7331 12.9928 12.5752 12.9082 12.4385C12.8236 12.3018 12.7031 12.196 12.5469 12.1211C12.3939 12.043 12.2148 12.0039 12.0098 12.0039C11.8014 12.0039 11.6094 12.0413 11.4336 12.1162C11.2578 12.1878 11.1162 12.2904 11.0088 12.4238C10.9014 12.5573 10.8444 12.7135 10.8379 12.8926H9.43164C9.43815 12.4954 9.55371 12.1406 9.77832 11.8281C10.0062 11.5124 10.3138 11.2682 10.7012 11.0957C11.0885 10.9199 11.5215 10.832 12 10.832C12.4818 10.832 12.9082 10.9199 13.2793 11.0957C13.6536 11.2715 13.9417 11.5107 14.1436 11.8135C14.3486 12.1162 14.4512 12.4531 14.4512 12.8242C14.4512 13.0814 14.3958 13.3158 14.2852 13.5273C14.1745 13.7357 14.0166 13.9082 13.8115 14.0449C13.6097 14.1784 13.377 14.2695 13.1133 14.3184V14.377C13.6276 14.4388 14.0247 14.6162 14.3047 14.9092C14.5846 15.2021 14.7214 15.5716 14.7148 16.0176C14.7181 16.4147 14.6025 16.7728 14.3682 17.0918C14.137 17.4076 13.8132 17.6549 13.3965 17.834C12.9798 18.0098 12.5078 18.0977 11.9805 18.0977Z" fill="#143350"/>
</svg>
