<svg width="28" height="28" viewBox="0 0 28 28" fill="none" xmlns="http://www.w3.org/2000/svg">
<path fill-rule="evenodd" clip-rule="evenodd" d="M11 8V5C11 3.89543 10.1046 3 9 3H7C5.89543 3 5 3.89543 5 5V21C5 22.1046 5.89543 23 7 23H11H17H21C22.1046 23 23 22.1046 23 21V15C23 13.8954 22.1046 13 21 13H17V10C17 8.89543 16.1046 8 15 8H11Z" fill="#1F4C77"/>
<path d="M11 8H10.5C10.5 8.27614 10.7239 8.5 11 8.5V8ZM17 13H16.5C16.5 13.2761 16.7239 13.5 17 13.5V13ZM10.5 5V8H11.5V5H10.5ZM9 3.5C9.82843 3.5 10.5 4.17157 10.5 5H11.5C11.5 3.61929 10.3807 2.5 9 2.5V3.5ZM7 3.5H9V2.5H7V3.5ZM5.5 5C5.5 4.17157 6.17157 3.5 7 3.5V2.5C5.61929 2.5 4.5 3.61929 4.5 5H5.5ZM5.5 21V5H4.5V21H5.5ZM7 22.5C6.17157 22.5 5.5 21.8284 5.5 21H4.5C4.5 22.3807 5.61929 23.5 7 23.5V22.5ZM11 22.5H7V23.5H11V22.5ZM17 22.5H11V23.5H17V22.5ZM17 23.5H21V22.5H17V23.5ZM21 23.5C22.3807 23.5 23.5 22.3807 23.5 21H22.5C22.5 21.8284 21.8284 22.5 21 22.5V23.5ZM23.5 21V15H22.5V21H23.5ZM23.5 15C23.5 13.6193 22.3807 12.5 21 12.5V13.5C21.8284 13.5 22.5 14.1716 22.5 15H23.5ZM21 12.5H17V13.5H21V12.5ZM16.5 10V13H17.5V10H16.5ZM15 8.5C15.8284 8.5 16.5 9.17157 16.5 10H17.5C17.5 8.61929 16.3807 7.5 15 7.5V8.5ZM11 8.5H15V7.5H11V8.5Z" fill="#1F4C77"/>
<path d="M11 20L11 11" stroke="#143350" stroke-width="2" stroke-linecap="round" stroke-linejoin="round"/>
<path d="M16 20L16 16" stroke="#143350" stroke-width="2" stroke-linecap="round" stroke-linejoin="round"/>
</svg>
